<?xml version="1.0" encoding="UTF-8" standalone="no"?>
<!DOCTYPE svg PUBLIC "-//W3C//DTD SVG 1.1//EN"
 "http://www.w3.org/Graphics/SVG/1.1/DTD/svg11.dtd">
<!-- Generated by graphviz version 14.1.5 (20260411.2331)
 -->
<!-- Title: FiberStateMachine Pages: 1 -->
<svg width="1692pt" height="339pt"
 viewBox="0.00 0.00 1692.00 339.00" xmlns="http://www.w3.org/2000/svg" xmlns:xlink="http://www.w3.org/1999/xlink">
<g id="graph0" class="graph" transform="scale(1 1) rotate(0) translate(4 334.82)">
<title>FiberStateMachine</title>
<polygon fill="#1e1e2e" stroke="none" points="-4,4 -4,-334.82 1688.15,-334.82 1688.15,4 -4,4"/>
<!-- start -->
<g id="node1" class="node">
<title>start</title>
<ellipse fill="#a6adc8" stroke="#a6adc8" cx="7.2" cy="-131.77" rx="7.2" ry="7.2"/>
</g>
<!-- Undefined -->
<g id="node2" class="node">
<title>Undefined</title>
<path fill="#313244" stroke="#585b70" d="M291.4,-160.57C291.4,-160.57 135.4,-160.57 135.4,-160.57 129.4,-160.57 123.4,-154.57 123.4,-148.57 123.4,-148.57 123.4,-114.97 123.4,-114.97 123.4,-108.97 129.4,-102.97 135.4,-102.97 135.4,-102.97 291.4,-102.97 291.4,-102.97 297.4,-102.97 303.4,-108.97 303.4,-114.97 303.4,-114.97 303.4,-148.57 303.4,-148.57 303.4,-154.57 297.4,-160.57 291.4,-160.57"/>
<text xml:space="preserve" text-anchor="middle" x="213.4" y="-133.32" font-family="Helvetica,sans-Serif" font-size="11.00" fill="#cdd6f4">UNDEFINED</text>
<text xml:space="preserve" text-anchor="middle" x="213.4" y="-121.32" font-family="Helvetica,sans-Serif" font-size="11.00" fill="#cdd6f4">DomainId has never existed.</text>
</g>
<!-- start&#45;&gt;Undefined -->
<g id="edge1" class="edge">
<title>start&#45;&gt;Undefined</title>
<path fill="none" stroke="#a6adc8" d="M14.54,-131.77C30.15,-131.77 72.23,-131.77 113.59,-131.77"/>
<polygon fill="#a6adc8" stroke="#a6adc8" points="113.43,-134.57 121.43,-131.77 113.43,-128.97 113.43,-134.57"/>
</g>
<!-- Defined -->
<g id="node3" class="node">
<title>Defined</title>
<path fill="#313244" stroke="#585b70" d="M608.65,-160.57C608.65,-160.57 452.65,-160.57 452.65,-160.57 446.65,-160.57 440.65,-154.57 440.65,-148.57 440.65,-148.57 440.65,-114.97 440.65,-114.97 440.65,-108.97 446.65,-102.97 452.65,-102.97 452.65,-102.97 608.65,-102.97 608.65,-102.97 614.65,-102.97 620.65,-108.97 620.65,-114.97 620.65,-114.97 620.65,-148.57 620.65,-148.57 620.65,-154.57 614.65,-160.57 608.65,-160.57"/>
<text xml:space="preserve" text-anchor="middle" x="530.65" y="-139.32" font-family="Helvetica,sans-Serif" font-size="11.00" fill="#cdd6f4">DEFINED</text>
<text xml:space="preserve" text-anchor="middle" x="530.65" y="-127.32" font-family="Helvetica,sans-Serif" font-size="11.00" fill="#cdd6f4">Fiber is active.</text>
<text xml:space="preserve" text-anchor="middle" x="530.65" y="-115.32" font-family="Helvetica,sans-Serif" font-size="11.00" fill="#cdd6f4">Events can be appended.</text>
</g>
<!-- Undefined&#45;&gt;Defined -->
<g id="edge2" class="edge">
<title>Undefined&#45;&gt;Defined</title>
<path fill="none" stroke="#a6adc8" d="M303.89,-131.77C343.5,-131.77 390.2,-131.77 430.83,-131.77"/>
<polygon fill="#a6adc8" stroke="#a6adc8" points="430.69,-134.57 438.69,-131.77 430.69,-128.97 430.69,-134.57"/>
<text xml:space="preserve" text-anchor="middle" x="372.03" y="-133.52" font-family="Helvetica,sans-Serif" font-size="10.00" fill="#a6adc8">Create</text>
</g>
<!-- Defined&#45;&gt;Defined -->
<g id="edge3" class="edge">
<title>Defined&#45;&gt;Defined</title>
<path fill="none" stroke="#a6adc8" d="M508.7,-160.92C493.36,-194.18 500.68,-232.57 530.65,-232.57 558.05,-232.57 566.52,-200.49 556.06,-169.58"/>
<polygon fill="#a6adc8" stroke="#a6adc8" points="558.73,-168.72 553.16,-162.33 553.53,-170.8 558.73,-168.72"/>
<text xml:space="preserve" text-anchor="middle" x="530.65" y="-234.32" font-family="Helvetica,sans-Serif" font-size="10.00" fill="#a6adc8">Update</text>
</g>
<!-- Detached -->
<g id="node4" class="node">
<title>Detached</title>
<path fill="#313244" stroke="#585b70" d="M930.4,-247.57C930.4,-247.57 774.4,-247.57 774.4,-247.57 768.4,-247.57 762.4,-241.57 762.4,-235.57 762.4,-235.57 762.4,-201.97 762.4,-201.97 762.4,-195.97 768.4,-189.97 774.4,-189.97 774.4,-189.97 930.4,-189.97 930.4,-189.97 936.4,-189.97 942.4,-195.97 942.4,-201.97 942.4,-201.97 942.4,-235.57 942.4,-235.57 942.4,-241.57 936.4,-247.57 930.4,-247.57"/>
<text xml:space="preserve" text-anchor="middle" x="852.4" y="-226.32" font-family="Helvetica,sans-Serif" font-size="11.00" fill="#cdd6f4">DETACHED</text>
<text xml:space="preserve" text-anchor="middle" x="852.4" y="-214.32" font-family="Helvetica,sans-Serif" font-size="11.00" fill="#cdd6f4">Soft&#45;deleted.</text>
<text xml:space="preserve" text-anchor="middle" x="852.4" y="-202.32" font-family="Helvetica,sans-Serif" font-size="11.00" fill="#cdd6f4">Awaits migration decision.</text>
</g>
<!-- Defined&#45;&gt;Detached -->
<g id="edge4" class="edge">
<title>Defined&#45;&gt;Detached</title>
<path fill="none" stroke="#a6adc8" d="M581.25,-161C608.02,-175.39 642.16,-191.59 674.65,-200.77 699.5,-207.8 727,-212.15 752.76,-214.83"/>
<polygon fill="#a6adc8" stroke="#a6adc8" points="752.42,-217.61 760.65,-215.6 752.96,-212.04 752.42,-217.61"/>
<text xml:space="preserve" text-anchor="middle" x="691.53" y="-210.15" font-family="Helvetica,sans-Serif" font-size="10.00" fill="#a6adc8">Detach</text>
</g>
<!-- Detached&#45;&gt;Defined -->
<g id="edge5" class="edge">
<title>Detached&#45;&gt;Defined</title>
<path fill="none" stroke="#a6adc8" d="M761.93,-194.43C720.97,-183.28 672.3,-170.04 630.28,-158.61"/>
<polygon fill="#a6adc8" stroke="#a6adc8" points="631.06,-155.92 622.6,-156.52 629.59,-161.32 631.06,-155.92"/>
<text xml:space="preserve" text-anchor="middle" x="691.53" y="-179.63" font-family="Helvetica,sans-Serif" font-size="10.00" fill="#a6adc8">Rescue</text>
</g>
<!-- Detached&#45;&gt;Detached -->
<g id="edge6" class="edge">
<title>Detached&#45;&gt;Detached</title>
<path fill="none" stroke="#a6adc8" d="M830.13,-247.92C814.58,-281.18 822,-319.57 852.4,-319.57 880.19,-319.57 888.78,-287.49 878.17,-256.58"/>
<polygon fill="#a6adc8" stroke="#a6adc8" points="880.83,-255.69 875.23,-249.33 875.64,-257.79 880.83,-255.69"/>
<text xml:space="preserve" text-anchor="middle" x="852.4" y="-321.32" font-family="Helvetica,sans-Serif" font-size="10.00" fill="#a6adc8">Migrate(Keep)</text>
</g>
<!-- Locked -->
<g id="node5" class="node">
<title>Locked</title>
<path fill="#313244" stroke="#585b70" d="M1320.4,-101.57C1320.4,-101.57 1164.4,-101.57 1164.4,-101.57 1158.4,-101.57 1152.4,-95.57 1152.4,-89.57 1152.4,-89.57 1152.4,-55.97 1152.4,-55.97 1152.4,-49.97 1158.4,-43.97 1164.4,-43.97 1164.4,-43.97 1320.4,-43.97 1320.4,-43.97 1326.4,-43.97 1332.4,-49.97 1332.4,-55.97 1332.4,-55.97 1332.4,-89.57 1332.4,-89.57 1332.4,-95.57 1326.4,-101.57 1320.4,-101.57"/>
<text xml:space="preserve" text-anchor="middle" x="1242.4" y="-80.32" font-family="Helvetica,sans-Serif" font-size="11.00" fill="#cdd6f4">LOCKED</text>
<text xml:space="preserve" text-anchor="middle" x="1242.4" y="-68.32" font-family="Helvetica,sans-Serif" font-size="11.00" fill="#cdd6f4">Pruned to last event.</text>
<text xml:space="preserve" text-anchor="middle" x="1242.4" y="-56.32" font-family="Helvetica,sans-Serif" font-size="11.00" fill="#cdd6f4">Key NOT reusable.</text>
</g>
<!-- Detached&#45;&gt;Locked -->
<g id="edge8" class="edge">
<title>Detached&#45;&gt;Locked</title>
<path fill="none" stroke="#a6adc8" d="M930.99,-189.58C995.64,-165.25 1087.68,-130.62 1154.74,-105.38"/>
<polygon fill="#a6adc8" stroke="#a6adc8" points="1155.7,-108.01 1162.2,-102.57 1153.73,-102.77 1155.7,-108.01"/>
<text xml:space="preserve" text-anchor="middle" x="1047.4" y="-164.89" font-family="Helvetica,sans-Serif" font-size="10.00" fill="#a6adc8">Migrate(LockAndPrune)</text>
</g>
<!-- Purged -->
<g id="node6" class="node">
<title>Purged</title>
<path fill="#313244" stroke="#585b70" d="M1672.15,-101.57C1672.15,-101.57 1516.15,-101.57 1516.15,-101.57 1510.15,-101.57 1504.15,-95.57 1504.15,-89.57 1504.15,-89.57 1504.15,-55.97 1504.15,-55.97 1504.15,-49.97 1510.15,-43.97 1516.15,-43.97 1516.15,-43.97 1672.15,-43.97 1672.15,-43.97 1678.15,-43.97 1684.15,-49.97 1684.15,-55.97 1684.15,-55.97 1684.15,-89.57 1684.15,-89.57 1684.15,-95.57 1678.15,-101.57 1672.15,-101.57"/>
<text xml:space="preserve" text-anchor="middle" x="1594.15" y="-80.32" font-family="Helvetica,sans-Serif" font-size="11.00" fill="#cdd6f4">PURGED</text>
<text xml:space="preserve" text-anchor="middle" x="1594.15" y="-68.32" font-family="Helvetica,sans-Serif" font-size="11.00" fill="#cdd6f4">Removed from line.</text>
<text xml:space="preserve" text-anchor="middle" x="1594.15" y="-56.32" font-family="Helvetica,sans-Serif" font-size="11.00" fill="#cdd6f4">Key reusable.</text>
</g>
<!-- Detached&#45;&gt;Purged -->
<g id="edge7" class="edge">
<title>Detached&#45;&gt;Purged</title>
<path fill="none" stroke="#a6adc8" d="M942.79,-211.99C989.38,-207.78 1047.16,-201.48 1098.4,-192.77 1237.4,-169.16 1395.27,-128.38 1494.53,-101"/>
<polygon fill="#a6adc8" stroke="#a6adc8" points="1495.23,-103.71 1502.19,-98.87 1493.74,-98.31 1495.23,-103.71"/>
<text xml:space="preserve" text-anchor="middle" x="1242.4" y="-183.46" font-family="Helvetica,sans-Serif" font-size="10.00" fill="#a6adc8">Migrate(Purge)</text>
</g>
<!-- Locked&#45;&gt;Defined -->
<g id="edge10" class="edge">
<title>Locked&#45;&gt;Defined</title>
<path fill="none" stroke="#a6adc8" d="M1152.03,-80.2C1018.72,-91.28 768.64,-112.07 630.19,-123.58"/>
<polygon fill="#a6adc8" stroke="#a6adc8" points="630.07,-120.78 622.33,-124.23 630.53,-126.36 630.07,-120.78"/>
<text xml:space="preserve" text-anchor="middle" x="852.4" y="-113.69" font-family="Helvetica,sans-Serif" font-size="10.00" fill="#a6adc8">Rescue</text>
</g>
<!-- Locked&#45;&gt;Purged -->
<g id="edge11" class="edge">
<title>Locked&#45;&gt;Purged</title>
<path fill="none" stroke="#a6adc8" d="M1332.56,-72.77C1382,-72.77 1443.59,-72.77 1494.48,-72.77"/>
<polygon fill="#a6adc8" stroke="#a6adc8" points="1494.33,-75.57 1502.33,-72.77 1494.33,-69.97 1494.33,-75.57"/>
<text xml:space="preserve" text-anchor="middle" x="1418.28" y="-74.52" font-family="Helvetica,sans-Serif" font-size="10.00" fill="#a6adc8">Migrate(Purge)</text>
</g>
<!-- Purged&#45;&gt;Defined -->
<g id="edge9" class="edge">
<title>Purged&#45;&gt;Defined</title>
<path fill="none" stroke="#a6adc8" d="M1503.66,-44.71C1453.81,-30.54 1390.28,-14.88 1332.4,-7.77 1076.57,23.63 776.75,-53.44 626.97,-99.79"/>
<polygon fill="#a6adc8" stroke="#a6adc8" points="626.45,-97.02 619.64,-102.08 628.11,-102.37 626.45,-97.02"/>
<text xml:space="preserve" text-anchor="middle" x="1047.4" y="-16.95" font-family="Helvetica,sans-Serif" font-size="10.00" fill="#a6adc8">Create</text>
</g>
</g>
</svg>
